<svg xmlns="http://www.w3.org/2000/svg" viewBox="0 0 1200 750" width="1200" height="750" role="img" aria-label="Generated artwork for the Erlang course">

  <defs>
    <linearGradient id="bgerlang" x1="0" y1="0" x2="1200" y2="750" gradientUnits="userSpaceOnUse">
      <stop offset="0" stop-color="#121218"/>
      <stop offset="0.55" stop-color="#0b0b0f"/>
      <stop offset="1" stop-color="#08080b"/>
    </linearGradient>
    <radialGradient id="glowerlang" cx="983.9999999999999" cy="105.00000000000001" r="744" gradientUnits="userSpaceOnUse">
      <stop offset="0" stop-color="#f97316" stop-opacity="0.34"/>
      <stop offset="0.55" stop-color="#f97316" stop-opacity="0.10"/>
      <stop offset="1" stop-color="#f97316" stop-opacity="0"/>
    </radialGradient>
    <linearGradient id="accenterlang" x1="0" y1="0" x2="1200" y2="0" gradientUnits="userSpaceOnUse">
      <stop offset="0" stop-color="#fdba74"/>
      <stop offset="1" stop-color="#ea580c"/>
    </linearGradient>
    <clipPath id="cliperlang">
      <rect x="72" y="60" width="1056" height="600" rx="34"/>
    </clipPath>
    <linearGradient id="panelerlang" x1="0" y1="0" x2="0" y2="750" gradientUnits="userSpaceOnUse">
      <stop offset="0" stop-color="#ffffff" stop-opacity="0.10"/>
      <stop offset="1" stop-color="#ffffff" stop-opacity="0.02"/>
    </linearGradient>
  </defs>
  <rect width="1200" height="750" fill="url(#bgerlang)"/>
  <rect width="1200" height="750" fill="url(#glowerlang)"/>
  <g opacity="0.35" stroke="#ffffff" stroke-opacity="0.045">
    <path d="M80 0V750"/><path d="M160 0V750"/><path d="M240 0V750"/><path d="M320 0V750"/><path d="M400 0V750"/><path d="M480 0V750"/><path d="M560 0V750"/><path d="M640 0V750"/><path d="M720 0V750"/><path d="M800 0V750"/><path d="M880 0V750"/><path d="M960 0V750"/><path d="M1040 0V750"/><path d="M1120 0V750"/>
    <path d="M0 80H1200"/><path d="M0 160H1200"/><path d="M0 240H1200"/><path d="M0 320H1200"/><path d="M0 400H1200"/><path d="M0 480H1200"/><path d="M0 560H1200"/><path d="M0 640H1200"/><path d="M0 720H1200"/>
  </g>

  <g transform="rotate(0.8999999999999999 600 375)">
    <!-- glass panel -->
    <rect x="72" y="60" width="1056" height="600" rx="34" fill="url(#panelerlang)" stroke="#ffffff" stroke-opacity="0.12"/>
    <circle cx="126" cy="110" r="6" fill="#ffffff" fill-opacity="0.28"/>
    <circle cx="150" cy="110" r="6" fill="#ffffff" fill-opacity="0.18"/>
    <circle cx="174" cy="110" r="6" fill="#ffffff" fill-opacity="0.10"/>
    <rect x="900" y="94" width="180" height="32" rx="16" fill="url(#accenterlang)" fill-opacity="0.85"/>

    <!-- mark -->
    <text x="120" y="360" fill="#ffffff" fill-opacity="0.92" font-family="ui-monospace, SFMono-Regular, Menlo, monospace" font-size="150" font-weight="700" letter-spacing="2">ERL</text>
    <rect x="124" y="392" width="296" height="8" rx="4" fill="url(#accenterlang)"/>

    <!-- language + level -->
    <text x="120" y="452" fill="#ffffff" fill-opacity="0.66" font-family="ui-sans-serif, system-ui, Segoe UI, sans-serif" font-size="38">Erlang</text>
    <g transform="translate(120 486)">
      <rect x="0" y="0" width="18" height="8" rx="4" fill="#f97316" fill-opacity="0.9"/><rect x="26" y="0" width="18" height="8" rx="4" fill="#f97316" fill-opacity="0.9"/><rect x="52" y="0" width="18" height="8" rx="4" fill="#f97316" fill-opacity="0.9"/><rect x="78" y="0" width="18" height="8" rx="4" fill="#f97316" fill-opacity="0.9"/>
    </g>

    <!-- code motif, right column, clipped to the glass panel -->
    <g clip-path="url(#cliperlang)">
      <g transform="translate(640 0) rotate(2.4000000000000004 280 470)">
        <rect x="96" y="470" width="229" height="10" rx="5" fill="#ffffff" fill-opacity="0.14"/>
  <rect x="126" y="496" width="430" height="10" rx="5" fill="#ffffff" fill-opacity="0.19"/>
  <rect x="156" y="522" width="143" height="10" rx="5" fill="#ffffff" fill-opacity="0.07"/>
  <rect x="96" y="548" width="416" height="10" rx="5" fill="#ffffff" fill-opacity="0.16"/>
  <rect x="126" y="574" width="202" height="10" rx="5" fill="#ffffff" fill-opacity="0.12"/>
  <rect x="156" y="600" width="175" height="10" rx="5" fill="#ffffff" fill-opacity="0.14"/>
  <rect x="96" y="626" width="139" height="10" rx="5" fill="#ffffff" fill-opacity="0.14"/>
  <rect x="126" y="652" width="423" height="10" rx="5" fill="#ffffff" fill-opacity="0.11"/>
  <rect x="156" y="678" width="295" height="10" rx="5" fill="#ffffff" fill-opacity="0.11"/>
      </g>
    </g>
  </g>
</svg>
